<svg id="Layer_1" data-name="Layer 1" xmlns="http://www.w3.org/2000/svg" xmlns:xlink="http://www.w3.org/1999/xlink" opacity="0.5" viewBox="0 0 1920 1547"><defs><style>.cls-1{fill:#f2f2f2;}.cls-2{mask:url(#mask);}.cls-3{fill:#b3b3b3;}.cls-4{fill:#e6e6e6;}</style><mask id="mask" x="-210.09" y="-241.65" width="2336.2" height="2088.22" maskUnits="userSpaceOnUse"><rect class="cls-1" x="0.07" y="-1.04" width="1922.61" height="1847.61"/></mask></defs><title>Artboard 1</title><g class="cls-2"><rect x="195.28" y="193.53" width="320.54" height="320.54" rx="16.57" transform="translate(-146.04 355.04) rotate(-45)"/><rect class="cls-3" x="-44.81" y="433.62" width="320.54" height="320.54" rx="16.57" transform="translate(-386.12 255.59) rotate(-45)"/><rect class="cls-4" x="-150.58" y="59.23" width="320.54" height="320.54" rx="16.57" transform="translate(-152.37 71.14) rotate(-45)"/><rect class="cls-1" x="90.78" y="-182.14" width="320.54" height="320.54" rx="16.57" transform="translate(89 171.12) rotate(-45)"/><rect x="1400.2" y="741.34" width="320.54" height="320.54" rx="16.57" transform="translate(-180.48 1367.49) rotate(-45)"/><rect class="cls-3" x="1640.28" y="501.25" width="320.54" height="320.54" rx="16.57" transform="translate(59.6 1466.94) rotate(-45)"/><rect class="cls-4" x="1746.06" y="875.65" width="320.54" height="320.54" rx="16.57" transform="translate(-174.15 1651.4) rotate(-45)"/><rect class="cls-1" x="1504.7" y="1117.01" width="320.54" height="320.54" rx="16.57" transform="translate(-415.52 1551.42) rotate(-45)"/></g></svg>